<svg width="32" height="32" viewBox="0 0 32 32" fill="none" xmlns="http://www.w3.org/2000/svg">
  <!-- Baseball circle with blue theme matching your site -->
  <circle cx="16" cy="16" r="14" fill="#2563eb" stroke="#1e40af" stroke-width="2"/>
  
  <!-- Baseball stitching - the classic curved seam pattern -->
  <path d="M9 11 Q16 7 23 11" stroke="white" stroke-width="1.8" fill="none" stroke-linecap="round"/>
  <path d="M9 11 Q13 13.5 16 16 Q19 18.5 23 21" stroke="white" stroke-width="1.8" fill="none" stroke-linecap="round"/>
  
  <path d="M9 21 Q16 25 23 21" stroke="white" stroke-width="1.8" fill="none" stroke-linecap="round"/>
  <path d="M9 21 Q13 18.5 16 16 Q19 13.5 23 11" stroke="white" stroke-width="1.8" fill="none" stroke-linecap="round"/>
  
  <!-- Stitching details - small perpendicular lines -->
  <path d="M10.5 12 L11.5 10.5" stroke="white" stroke-width="1.2" stroke-linecap="round"/>
  <path d="M13.5 9.5 L14.5 8.5" stroke="white" stroke-width="1.2" stroke-linecap="round"/>
  <path d="M17.5 8.5 L18.5 9.5" stroke="white" stroke-width="1.2" stroke-linecap="round"/>
  <path d="M20.5 10.5 L21.5 12" stroke="white" stroke-width="1.2" stroke-linecap="round"/>
  
  <path d="M10.5 20 L11.5 21.5" stroke="white" stroke-width="1.2" stroke-linecap="round"/>
  <path d="M13.5 22.5 L14.5 23.5" stroke="white" stroke-width="1.2" stroke-linecap="round"/>
  <path d="M17.5 23.5 L18.5 22.5" stroke="white" stroke-width="1.2" stroke-linecap="round"/>
  <path d="M20.5 21.5 L21.5 20" stroke="white" stroke-width="1.2" stroke-linecap="round"/>
</svg>